<svg width="34" height="34" viewBox="0 0 34 34" fill="none" xmlns="http://www.w3.org/2000/svg">
<path fill-rule="evenodd" clip-rule="evenodd" d="M17 0C7.61116 0 0 7.61116 0 17C0 26.3888 7.61116 34 17 34C26.3888 34 34 26.3888 34 17C34 7.61116 26.3888 0 17 0ZM2.83333 17C2.83333 9.17646 9.17292 2.83333 17 2.83333C24.8235 2.83333 31.1667 9.17646 31.1667 17C31.1667 23.251 27.1115 28.5635 21.4436 30.4217C20.7176 30.5634 20.4697 30.1207 20.4697 29.7488C20.4697 29.5968 20.4716 29.3291 20.4742 28.9703C20.4794 28.2423 20.4874 27.1396 20.4874 25.8695C20.4874 24.5426 20.0269 23.6737 19.5311 23.2487C22.6832 22.9004 25.9946 21.7022 25.9946 16.2598C25.9946 14.7133 25.4457 13.4501 24.5426 12.4584C24.6842 12.1007 25.1624 10.6604 24.4009 8.70896C24.4009 8.70896 23.2144 8.32882 20.5228 10.161C19.3894 9.84583 18.1853 9.69 16.9811 9.68292C15.7769 9.69 14.5728 9.84583 13.4394 10.161C10.7301 8.32882 9.54361 8.70896 9.54361 8.70896C8.78215 10.6604 9.26028 12.1007 9.41965 12.4584C8.51062 13.4501 7.96167 14.7133 7.96167 16.2598C7.96167 21.688 11.2684 22.9063 14.4146 23.2605C14.0097 23.6147 13.6449 24.2392 13.5174 25.1553C12.7075 25.5177 10.6545 26.1434 9.39132 23.9771C9.39132 23.9771 8.64403 22.6171 7.22146 22.5179C7.22146 22.5179 5.83903 22.5002 7.12229 23.3785C7.12229 23.3785 8.05375 23.8153 8.69833 25.4504C8.69833 25.4504 9.52944 28.2058 13.4701 27.3511C13.4734 28.0067 13.4785 28.5731 13.4824 29.0048C13.4855 29.3505 13.4878 29.6098 13.4878 29.7594C13.4878 30.136 13.2281 30.574 12.5198 30.4406C6.89208 28.5694 2.83333 23.2605 2.83333 17Z" fill="white"/>
</svg>
