<svg width="151" height="71" viewBox="0 0 151 71" fill="none" xmlns="http://www.w3.org/2000/svg">
<path d="M11.1584 44.324C15.8744 44.324 17.7464 41.84 17.7464 37.484V19.376H12.9584V37.484C12.9584 39.896 12.7784 40.652 11.1584 40.652C9.61045 40.652 9.17845 39.536 9.17845 36.62H4.60645C4.60645 41.66 7.09045 44.324 11.1584 44.324ZM28.3617 44.324C30.4857 44.324 31.7817 43.46 32.3217 41.696L32.7177 44H36.6777V26H32.1057V37.988C32.1057 39.932 31.3857 40.904 29.9097 40.904C28.5777 40.904 27.8937 40.004 27.8937 38.24V26H23.3217V38.204C23.3217 42.128 25.1937 44.324 28.3617 44.324ZM47.5412 44.324C51.3932 44.324 53.7692 42.416 53.7692 38.96C53.7332 37.124 53.1572 35.972 52.1492 35.144C51.6092 34.712 51.5372 34.604 50.8532 34.28C50.5292 34.1 50.2772 33.956 50.1332 33.92L49.3412 33.524L48.6212 33.164C46.7132 32.192 46.1012 31.724 46.1012 30.464C46.1012 29.348 46.6052 28.808 47.6132 28.808C48.7292 28.808 49.1612 29.42 49.1612 31.112H53.5892C53.5892 26.9 51.2852 25.352 47.5052 25.352C44.0132 25.352 41.4572 27.368 41.4572 30.644C41.4572 31.652 41.6372 32.516 42.1052 33.2C42.5732 33.884 42.7892 34.244 43.6172 34.784L44.5172 35.324L45.5252 35.828L46.4612 36.26C48.3692 37.16 49.1612 37.772 49.1612 39.032C49.1612 40.292 48.6212 40.904 47.5052 40.904C46.3172 40.904 45.7412 40.076 45.7412 38.456H41.1332C41.1332 42.452 43.1132 44.324 47.5412 44.324ZM64.3436 44.324C65.0996 44.324 65.9996 44.18 67.0076 43.892V40.688C66.3956 40.868 65.8196 40.94 65.2796 40.94C64.3076 40.94 63.8036 40.364 63.8036 39.212V29.168H66.9716V26H63.8036V20.96H59.2676V26H56.4956V29.168H59.2676V39.464C59.2676 42.884 60.6356 44.324 64.3436 44.324Z" fill="white"/>
<path d="M76.3896 43.5646L79.0896 29.7046H79.1616L81.8616 43.5646H83.8776L87.6216 25.5646H85.4616L82.8696 39.4966H82.7976L80.1696 25.5646H78.1176L75.4536 39.5326H75.3816L72.8616 25.5646H70.7376L74.3736 43.5646H76.3896ZM96.5119 43.9246C100.652 43.9246 102.632 41.0086 102.632 34.5286C102.632 28.0486 100.652 25.1686 96.5119 25.1686C92.4439 25.1686 90.4639 28.0486 90.4639 34.5286C90.4639 41.0086 92.4439 43.9246 96.5119 43.9246ZM96.5119 42.2686C93.6679 42.2686 92.5519 40.1086 92.5519 34.5286C92.5519 28.9486 93.6679 26.7886 96.5119 26.7886C99.3919 26.7886 100.544 28.9486 100.544 34.5286C100.544 40.1086 99.3919 42.2686 96.5119 42.2686ZM109.928 43.5646V33.5206C109.928 29.4886 111.152 27.0766 113.564 27.0766C114.068 27.0766 114.644 27.1486 115.292 27.2566V25.4566C114.788 25.2766 114.284 25.2046 113.744 25.2046C111.8 25.2046 110.54 26.3566 110 28.6246H109.928V25.5646H107.84V43.5646H109.928ZM129.929 25.5646H127.661L123.017 33.1606H121.829V17.8606H119.777V43.5646H121.829V34.8166H122.981L128.021 43.5646H130.325L124.745 33.9886L129.929 25.5646ZM139.074 43.9246C142.206 43.9246 144.15 42.0166 144.15 38.9566C144.15 37.9846 144.006 37.2286 143.538 36.5446C143.106 35.8606 142.89 35.5006 142.134 35.0326C141.414 34.4926 141.234 34.4206 140.334 33.9886L139.47 33.5206C138.138 32.8006 137.634 32.5486 136.95 31.5406C136.626 31.0006 136.482 30.4246 136.482 29.7406C136.482 27.8326 137.346 26.8606 139.038 26.8606C140.946 26.8606 141.846 27.9046 141.882 30.3886H143.898C143.898 26.8966 142.278 25.1686 139.038 25.1686C136.266 25.1686 134.358 26.8606 134.358 29.8486C134.358 31.3966 134.79 32.4766 135.834 33.3766C136.374 33.8086 136.842 34.1326 137.166 34.3126L138.786 35.1766C139.938 35.7526 140.298 35.9326 141.018 36.6166C141.774 37.2286 142.062 38.0206 142.062 39.0646C142.062 40.9726 141.09 42.2326 139.074 42.2326C136.95 42.2326 135.87 41.0446 135.87 38.6326H133.746C133.782 42.1606 135.582 43.9246 139.074 43.9246Z" fill="white"/>
<rect width="2.11216" height="66.4856" transform="matrix(0.998758 -0.0498298 -0.00390767 -0.999992 148.89 67.7474)" fill="white"/>
</svg>
